<?xml version="1.0" encoding="UTF-8" standalone="no"?>
<!-- Generator: Adobe Illustrator 16.0.4, SVG Export Plug-In . SVG Version: 6.00 Build 0)  -->

<svg
   xmlns:dc="http://purl.org/dc/elements/1.1/"
   xmlns:cc="http://creativecommons.org/ns#"
   xmlns:rdf="http://www.w3.org/1999/02/22-rdf-syntax-ns#"
   xmlns:svg="http://www.w3.org/2000/svg"
   xmlns="http://www.w3.org/2000/svg"
   xmlns:sodipodi="http://sodipodi.sourceforge.net/DTD/sodipodi-0.dtd"
   xmlns:inkscape="http://www.inkscape.org/namespaces/inkscape"
   version="1.1"
   id="Layer_1"
   x="0px"
   y="0px"
   width="26"
   height="26"
   viewBox="0 0 26 26"
   enable-background="new 0 0 56.693 56.693"
   xml:space="preserve"
   inkscape:version="0.91 r13725"
   sodipodi:docname="80-google-plus.svg"
   style="fill:#ffffff"><metadata
     id="metadata15"><rdf:RDF><cc:Work
         rdf:about=""><dc:format>image/svg+xml</dc:format><dc:type
           rdf:resource="http://purl.org/dc/dcmitype/StillImage" /><dc:title></dc:title></cc:Work></rdf:RDF></metadata><defs
     id="defs13" /><sodipodi:namedview
     pagecolor="#ffffff"
     bordercolor="#666666"
     borderopacity="1"
     objecttolerance="10"
     gridtolerance="10"
     guidetolerance="10"
     inkscape:pageopacity="0"
     inkscape:pageshadow="2"
     inkscape:window-width="1809"
     inkscape:window-height="1057"
     id="namedview11"
     showgrid="false"
     inkscape:zoom="4.1627714"
     inkscape:cx="-6.8464005"
     inkscape:cy="28.3465"
     inkscape:window-x="-8"
     inkscape:window-y="-8"
     inkscape:window-maximized="1"
     inkscape:current-layer="Layer_1" /><g
     id="g3"
     transform="matrix(0.52794022,0,0,0.52794022,-1.9649935,-2.7225878)"><path
       d="m 23.761,27.96 c 0.629,0 1.16,-0.248 1.57,-0.717 0.645,-0.732 0.928,-1.936 0.76,-3.215 -0.301,-2.287 -1.932,-4.186 -3.637,-4.236 l -0.068,0 c -0.604,0 -1.141,0.246 -1.551,0.715 -0.637,0.725 -0.903,1.871 -0.736,3.146 0.299,2.283 1.965,4.256 3.635,4.307 l 0.027,0 z"
       id="path5"
       inkscape:connector-curvature="0" /><path
       d="M 25.622,34.847 C 25.454,34.734 25.28,34.615 25.101,34.492 24.576,34.33 24.017,34.246 23.447,34.238 l -0.072,0 c -2.625,0 -4.929,1.592 -4.929,3.406 0,1.971 1.972,3.518 4.491,3.518 3.322,0 5.006,-1.145 5.006,-3.404 0,-0.215 -0.025,-0.436 -0.076,-0.656 -0.225,-0.88 -1.03,-1.427 -2.245,-2.255 z"
       id="path7"
       inkscape:connector-curvature="0" /><path
       d="M 28.347,5.157 C 14.746,5.157 3.722,16.18 3.722,29.78 c 0,13.6 11.025,24.625 24.625,24.625 C 41.945,54.405 52.97,43.38 52.97,29.78 52.97,16.18 41.944,5.157 28.347,5.157 Z m -2.241,38.022 c -0.982,0.283 -2.041,0.428 -3.154,0.428 -1.238,0 -2.43,-0.143 -3.54,-0.424 -2.15,-0.541 -3.74,-1.57 -4.48,-2.895 -0.32,-0.574 -0.482,-1.184 -0.482,-1.816 0,-0.652 0.156,-1.312 0.463,-1.967 1.18,-2.51 4.283,-4.197 7.722,-4.197 0.035,0 0.068,0 0.1,0 -0.279,-0.492 -0.416,-1.002 -0.416,-1.537 0,-0.268 0.035,-0.539 0.105,-0.814 -3.606,-0.084 -6.306,-2.725 -6.306,-6.207 0,-2.461 1.965,-4.855 4.776,-5.824 0.842,-0.291 1.699,-0.439 2.543,-0.439 l 7.713,0 c 0.264,0 0.494,0.17 0.576,0.42 0.084,0.252 -0.008,0.525 -0.221,0.68 l -1.725,1.248 c -0.104,0.074 -0.229,0.115 -0.357,0.115 l -0.617,0 c 0.799,0.955 1.266,2.316 1.266,3.848 0,1.691 -0.855,3.289 -2.41,4.506 -1.201,0.936 -1.25,1.191 -1.25,1.729 0.016,0.295 0.854,1.252 1.775,1.904 2.152,1.523 2.953,3.014 2.953,5.508 0,2.595 -1.977,4.847 -5.034,5.734 z M 43.528,29.948 c 0,0.334 -0.273,0.605 -0.607,0.605 l -4.383,0 0,4.385 c 0,0.336 -0.271,0.607 -0.607,0.607 l -1.248,0 c -0.336,0 -0.607,-0.271 -0.607,-0.607 l 0,-4.385 -4.386,0 c -0.332,0 -0.605,-0.271 -0.605,-0.605 l 0,-1.25 c 0,-0.334 0.273,-0.607 0.605,-0.607 l 4.385,0 0,-4.383 c 0,-0.336 0.271,-0.607 0.607,-0.607 l 1.248,0 c 0.336,0 0.607,0.271 0.607,0.607 l 0,4.383 4.383,0 c 0.334,0 0.607,0.273 0.607,0.607 l 0,1.25 z"
       id="path9"
       inkscape:connector-curvature="0" /></g></svg>