<?xml version="1.0" encoding="UTF-8" standalone="no"?>
<!-- Generator: Adobe Illustrator 15.0.0, SVG Export Plug-In . SVG Version: 6.00 Build 0) -->

<svg
   xmlns:dc="http://purl.org/dc/elements/1.1/"
   xmlns:cc="http://creativecommons.org/ns#"
   xmlns:rdf="http://www.w3.org/1999/02/22-rdf-syntax-ns#"
   xmlns:svg="http://www.w3.org/2000/svg"
   xmlns="http://www.w3.org/2000/svg"
   xmlns:sodipodi="http://sodipodi.sourceforge.net/DTD/sodipodi-0.dtd"
   xmlns:inkscape="http://www.inkscape.org/namespaces/inkscape"
   version="1.1"
   id="Layer_1"
   x="0px"
   y="0px"
   width="26px"
   height="26px"
   viewBox="0 0 26 26"
   enable-background="new 0 0 26 26"
   xml:space="preserve"
   inkscape:version="0.91 r13725"
   sodipodi:docname="gscholar.svg"><sodipodi:namedview
     pagecolor="#657371"
     bordercolor="#666666"
     borderopacity="1"
     objecttolerance="10"
     gridtolerance="10"
     guidetolerance="10"
     inkscape:pageopacity="0"
     inkscape:pageshadow="2"
     inkscape:window-width="1809"
     inkscape:window-height="1057"
     id="namedview33"
     showgrid="false"
     inkscape:zoom="6.4183539"
     inkscape:cx="1.8611057"
     inkscape:cy="10.344073"
     inkscape:window-x="-8"
     inkscape:window-y="-8"
     inkscape:window-maximized="1"
     inkscape:current-layer="layer2" /><metadata
     id="metadata37"><rdf:RDF><cc:Work
         rdf:about=""><dc:format>image/svg+xml</dc:format><dc:type
           rdf:resource="http://purl.org/dc/dcmitype/StillImage" /><dc:title></dc:title></cc:Work></rdf:RDF></metadata><defs
     id="defs35"><filter
       id="filter3978"
       inkscape:label="Invert"
       x="0"
       y="0"
       width="1"
       height="1"
       inkscape:menu="Color"
       inkscape:menu-tooltip="Invert colors"
       color-interpolation-filters="sRGB"><feColorMatrix
         id="feColorMatrix3980"
         type="saturate"
         values="1"
         result="fbSourceGraphic" /><feColorMatrix
         id="feColorMatrix3982"
         in="fbSourceGraphic"
         values="-1 0 0 0 1 0 -1 0 0 1 0 0 -1 0 1 0 0 0 1 0 " /></filter></defs><g
     style="display:inline"
     inkscape:label="Ebene"
     id="layer1"
     inkscape:groupmode="layer"><path
       sodipodi:type="arc"
       style="fill:#000000;fill-opacity:1;stroke:none;opacity:0"
       id="path3984"
       sodipodi:cx="-57.233051"
       sodipodi:cy="-3.8008475"
       sodipodi:rx="7.8771186"
       sodipodi:ry="7.8771186"
       d="m -49.355933,-3.8008475 a 7.8771186,7.8771186 0 1 1 -15.754237,0 7.8771186,7.8771186 0 1 1 15.754237,0 z"
       transform="matrix(1.6376547,0,0,1.6376547,106.72797,19.224476)" /></g><g
     inkscape:label="Ebene#1"
     id="layer2"
     inkscape:groupmode="layer"><g
       transform="matrix(1.462564,0,0,1.4626463,-6.9398662,-4.8369719)"
       id="g3"
       style="filter:url(#filter3978)"><path
         inkscape:connector-curvature="0"
         id="path5"
         d="m 13.633,15.452 c 0.591,0 1.165,-0.043 1.717,-0.113 0.364,-0.422 0.714,-0.879 1.038,-1.365 0.397,-0.598 0.74,-1.211 1.023,-1.823 C 17.131,11.54 16.79,10.921 16.388,10.316 16.064,9.829 15.715,9.373 15.351,8.951 14.798,8.88 14.224,8.839 13.633,8.839 c -0.591,0 -1.165,0.041 -1.718,0.112 -0.363,0.422 -0.714,0.878 -1.037,1.365 -0.402,0.605 -0.743,1.224 -1.023,1.835 0.283,0.612 0.627,1.226 1.023,1.823 0.324,0.486 0.674,0.943 1.038,1.365 0.552,0.07 1.126,0.113 1.717,0.113 z m 0,-4.417 c 0.613,0 1.109,0.497 1.109,1.11 0,0.612 -0.496,1.109 -1.109,1.109 -0.613,0 -1.109,-0.497 -1.109,-1.109 -10e-4,-0.614 0.496,-1.11 1.109,-1.11 z" /><path
         inkscape:connector-curvature="0"
         id="path7"
         d="m 17.724,12.904 c -0.243,0.476 -0.517,0.948 -0.824,1.409 -0.202,0.305 -0.415,0.598 -0.633,0.879 0.715,-0.146 1.366,-0.35 1.94,-0.596 -0.099,-0.535 -0.261,-1.105 -0.483,-1.692 z" /><path
         inkscape:connector-curvature="0"
         id="path9"
         d="m 16.268,9.097 c 0.218,0.281 0.431,0.573 0.632,0.878 0.313,0.47 0.588,0.944 0.83,1.414 0.222,-0.579 0.385,-1.148 0.485,-1.695 C 17.639,9.448 16.983,9.243 16.268,9.097 z" /><path
         inkscape:connector-curvature="0"
         id="path11"
         d="m 13.633,8.223 c 0.369,0 0.729,0.018 1.083,0.044 C 14.361,7.913 13.997,7.594 13.633,7.316 13.269,7.594 12.905,7.912 12.551,8.267 12.904,8.24 13.264,8.223 13.633,8.223 z" /><path
         inkscape:connector-curvature="0"
         id="path13"
         d="M 15.655,8.365 C 16.636,8.502 17.531,8.737 18.301,9.05 18.418,7.768 18.126,6.822 17.461,6.381 17.188,6.199 16.857,6.108 16.48,6.108 c -0.691,0 -1.497,0.306 -2.319,0.838 0.509,0.404 1.013,0.88 1.494,1.419 z" /><path
         inkscape:connector-curvature="0"
         id="path15"
         d="M 10.999,15.192 C 10.781,14.911 10.568,14.618 10.366,14.313 10.058,13.852 9.785,13.379 9.542,12.904 9.319,13.491 9.157,14.06 9.059,14.596 c 0.574,0.247 1.226,0.45 1.94,0.596 z" /><path
         inkscape:connector-curvature="0"
         id="path17"
         d="m 10.998,9.097 c -0.716,0.146 -1.371,0.351 -1.946,0.597 0.1,0.547 0.263,1.116 0.484,1.695 0.242,-0.47 0.517,-0.944 0.83,-1.414 0.202,-0.305 0.415,-0.597 0.632,-0.878 z" /><path
         inkscape:connector-curvature="0"
         id="path19"
         d="m 11.611,15.925 c -0.979,-0.137 -1.872,-0.371 -2.643,-0.684 -0.113,1.229 0.148,2.213 0.835,2.668 0.273,0.182 0.604,0.273 0.981,0.273 0.691,0 1.497,-0.305 2.319,-0.84 -0.507,-0.402 -1.01,-0.878 -1.492,-1.417 z" /><path
         inkscape:connector-curvature="0"
         id="path21"
         d="m 13.633,16.067 c -0.369,0 -0.729,-0.018 -1.082,-0.045 0.355,0.355 0.719,0.672 1.082,0.949 0.364,-0.277 0.728,-0.594 1.082,-0.949 -0.354,0.028 -0.713,0.045 -1.082,0.045 z" /><path
         inkscape:connector-curvature="0"
         id="path23"
         d="m 15.655,15.925 c -0.481,0.539 -0.985,1.016 -1.494,1.418 0.822,0.533 1.628,0.84 2.319,0.84 l 0,0 c 0.378,0 0.708,-0.092 0.981,-0.273 0.687,-0.455 0.949,-1.438 0.835,-2.668 -0.769,0.312 -1.662,0.546 -2.641,0.683 z" /><path
         inkscape:connector-curvature="0"
         id="path25"
         d="m 18.789,9.972 c -0.142,0.7 -0.382,1.432 -0.703,2.168 0.33,0.752 0.566,1.486 0.708,2.178 1.086,-0.588 1.759,-1.35 1.759,-2.172 0,-0.825 -0.675,-1.588 -1.764,-2.174 z" /><path
         inkscape:connector-curvature="0"
         id="path27"
         d="m 8.476,9.972 c -1.088,0.586 -1.763,1.349 -1.763,2.173 0,0.823 0.673,1.585 1.759,2.171 C 8.613,13.627 8.849,12.892 9.18,12.14 8.859,11.404 8.618,10.672 8.476,9.972 z" /><path
         inkscape:connector-curvature="0"
         id="path29"
         d="m 13.633,3.307 c -4.909,0 -8.888,3.979 -8.888,8.888 0,4.91 3.979,8.888 8.888,8.888 4.909,0 8.889,-3.979 8.889,-8.888 -10e-4,-4.909 -3.98,-8.888 -8.889,-8.888 z m 5.268,11.663 c 0.187,1.563 -0.164,2.832 -1.099,3.451 -0.376,0.25 -0.82,0.377 -1.322,0.377 l 0,0 c -0.867,0 -1.857,-0.389 -2.847,-1.066 -0.991,0.678 -1.981,1.066 -2.849,1.066 -0.501,0 -0.946,-0.127 -1.322,-0.377 C 8.528,17.802 8.177,16.532 8.363,14.97 6.96,14.261 6.096,13.267 6.096,12.145 6.096,11.023 6.962,10.026 8.367,9.318 8.174,7.691 8.561,6.466 9.463,5.867 c 0.376,-0.25 0.821,-0.376 1.322,-0.376 0.867,0 1.857,0.388 2.848,1.066 0.99,-0.678 1.98,-1.066 2.848,-1.066 0.501,0 0.946,0.126 1.322,0.376 0.902,0.599 1.289,1.824 1.094,3.45 1.406,0.708 2.272,1.705 2.272,2.828 0,1.122 -0.863,2.116 -2.268,2.825 z" /><path
         inkscape:connector-curvature="0"
         id="path31"
         d="M 11.61,8.365 C 12.091,7.826 12.595,7.35 13.104,6.945 12.282,6.413 11.476,6.107 10.785,6.107 10.407,6.107 10.077,6.199 9.804,6.38 9.139,6.821 8.847,7.768 8.963,9.049 9.734,8.736 10.63,8.502 11.61,8.365 z" /></g></g></svg>