<?xml version="1.0" encoding="UTF-8" standalone="no"?>
<!-- The icon can be used freely in both personal and commercial projects with no attribution required, but always appreciated. 
You may NOT sub-license, resell, rent, redistribute or otherwise transfer the icon without express written permission from iconmonstr.com -->

<svg
   xmlns:dc="http://purl.org/dc/elements/1.1/"
   xmlns:cc="http://creativecommons.org/ns#"
   xmlns:rdf="http://www.w3.org/1999/02/22-rdf-syntax-ns#"
   xmlns:svg="http://www.w3.org/2000/svg"
   xmlns="http://www.w3.org/2000/svg"
   xmlns:sodipodi="http://sodipodi.sourceforge.net/DTD/sodipodi-0.dtd"
   xmlns:inkscape="http://www.inkscape.org/namespaces/inkscape"
   version="1.1"
   x="0px"
   y="0px"
   width="429"
   height="429"
   viewBox="0 0 429 429"
   enable-background="new 0 0 512 512"
   xml:space="preserve"
   id="svg2"
   inkscape:version="0.91 r13725"
   sodipodi:docname="linkedin.svg"
   style="fill:#ffffff"><metadata
     id="metadata9"><rdf:RDF><cc:Work
         rdf:about=""><dc:format>image/svg+xml</dc:format><dc:type
           rdf:resource="http://purl.org/dc/dcmitype/StillImage" /><dc:title></dc:title></cc:Work></rdf:RDF></metadata><defs
     id="defs7" /><sodipodi:namedview
     pagecolor="#ffffff"
     bordercolor="#666666"
     borderopacity="1"
     objecttolerance="10"
     gridtolerance="10"
     guidetolerance="10"
     inkscape:pageopacity="0"
     inkscape:pageshadow="2"
     inkscape:window-width="1812"
     inkscape:window-height="1057"
     id="namedview5"
     showgrid="false"
     inkscape:zoom="1.3037281"
     inkscape:cx="181.84663"
     inkscape:cy="248.06062"
     inkscape:window-x="-8"
     inkscape:window-y="-8"
     inkscape:window-maximized="1"
     inkscape:current-layer="svg2" /><g
     inkscape:groupmode="layer"
     id="layer1"
     inkscape:label="bg"
     transform="translate(0,-83)"><rect
       style="fill:#3b5998;fill-opacity:1;fill-rule:evenodd;stroke:#000000;stroke-width:0.83683532px;stroke-linecap:butt;stroke-linejoin:miter;stroke-opacity:1"
       id="rect3346"
       width="433.76535"
       height="432.23132"
       x="-1.5815824"
       y="82.418442" /></g><path
     id="linkedin-circle-outline-icon"
     d="m 215,40.747573 c 46.27718,0 89.78442,18.021383 122.50825,50.744174 32.72384,32.723833 50.74418,76.231063 50.74418,122.508253 0,46.27718 -18.02139,89.78442 -50.74418,122.50825 C 304.78442,369.23104 261.27718,387.25243 215,387.25243 168.72282,387.25243 125.21558,369.23 92.491748,336.50825 59.767913,303.78442 41.747573,260.27718 41.747573,214 c 0,-46.27719 18.021383,-89.78442 50.744175,-122.508253 C 125.21558,58.768956 168.72282,40.747573 215,40.747573 M 215,-1 C 96.258422,-1 0,95.258422 0,214 0,332.74158 96.258422,429 215,429 333.74158,429 430,332.74158 430,214 430,95.258422 333.74158,-1 215,-1 l 0,0 z m -44.50291,131.25959 c 0,13.20997 -10.62372,23.91927 -23.72619,23.91927 -13.10457,0 -23.72723,-10.7093 -23.72723,-23.91927 0,-13.21102 10.62371,-23.91928 23.72723,-23.91928 13.10352,0 23.72619,10.70826 23.72619,23.91928 z m -3.4734,40.89592 -40.12255,0 0,129.63143 40.12255,0 0,-129.63143 z m 64.13993,0 -38.48396,0 0,129.63143 38.48396,0 c 0,0 0,-48.08172 0,-68.04646 0,-18.23012 8.39126,-29.08031 24.45155,-29.08031 14.75777,0 21.8465,10.41811 21.8465,29.08031 0,18.66326 0,68.04646 0,68.04646 l 39.93051,0 c 0,0 0,-47.35845 0,-82.08199 0,-34.72146 -19.67667,-51.50502 -47.16432,-51.50502 -27.48764,0 -39.0632,21.41337 -39.0632,21.41337 l 0,-17.45779 z"
     inkscape:connector-curvature="0" /></svg>